<svg xmlns="http://www.w3.org/2000/svg" width="32" height="32" fill="none">
  <path fill="#4285F4" d="M16 13.818v4.647h6.458c-.284 1.495-1.135 2.76-2.41 3.611l3.894 3.022c2.269-2.094 3.578-5.17 3.578-8.825 0-.851-.077-1.67-.218-2.455H16Z"/>
  <path fill="#34A853" d="m9.275 18.284-.879.672-3.109 2.422C7.262 25.294 11.31 28 16 28c3.24 0 5.956-1.07 7.941-2.902l-3.894-3.022c-1.07.72-2.433 1.157-4.047 1.157-3.12 0-5.771-2.106-6.72-4.942l-.005-.007Z"/>
  <path fill="#FBBC05" d="M5.287 10.622A11.852 11.852 0 0 0 4 16c0 1.942.469 3.764 1.287 5.378 0 .011 3.993-3.098 3.993-3.098A7.191 7.191 0 0 1 8.898 16c0-.796.142-1.56.382-2.28l-3.993-3.098Z"/>
  <path fill="#EA4335" d="M16 8.778c1.767 0 3.338.611 4.593 1.79l3.436-3.437C21.945 5.189 19.239 4 15.999 4c-4.69 0-8.737 2.695-10.712 6.622L9.28 13.72c.949-2.836 3.6-4.942 6.72-4.942Z"/>
</svg>
