<svg xmlns="http://www.w3.org/2000/svg" width="33" height="32" fill="none">
  <path fill="#fff" d="M25.348 12.182c-.139.108-2.588 1.493-2.588 4.573 0 3.562 3.116 4.822 3.21 4.853-.015.077-.495 1.726-1.643 3.406-1.024 1.479-2.093 2.955-3.72 2.955-1.625 0-2.044-.948-3.921-.948-1.83 0-2.48.979-3.968.979S10.193 26.632 9 24.952c-1.383-1.973-2.5-5.038-2.5-7.948 0-4.666 3.023-7.14 5.998-7.14 1.58 0 2.899 1.041 3.891 1.041.945 0 2.418-1.104 4.216-1.104.682 0 3.131.063 4.743 2.381Zm-5.596-4.356c.744-.886 1.27-2.115 1.27-3.344 0-.17-.015-.343-.046-.482-1.21.046-2.65.809-3.518 1.82-.681.777-1.318 2.006-1.318 3.252 0 .187.032.374.046.434.076.015.2.031.325.031 1.086 0 2.451-.73 3.24-1.711Z"/>
</svg>
